# xmcd
#
# Track frame offsets: 
#        150
#        14657
#        27393
#        37474
#        52311
#        66816
#        90010
#        102882
#        113475
#        128619
#        138660
#        152903
#        162138
#        174882
#        186831
#        206080
#        223803
#        234111
#
# Disc length: 3323 seconds
#
# Revision: 0
# Processed by: cddbd v1.5.2PL0 Copyright (c) Steve Scherf et al.
# Submitted via: ExactAudioCopy v0.99pb4
#
DISCID=f90cf912
DTITLE=JJ Cale - Gold [CDOne)
DYEAR=2008
DGENRE=Blues
TTITLE0=Call me the breeze
TTITLE1=Magnolia
TTITLE2=After Midnight
TTITLE3=river Runs Deep
TTITLE4=Woman I Love
TTITLE5=Crazy Mama
TTITLE6=Lies
TTITLE7=If You're Ever in Oklahoma
TTITLE8=Riding Home
TTITLE9=Going Down
TTITLE10=Cajun Moon
TTITLE11=Any Way the Wind Blows
TTITLE12=I Got The Same Old Blues
TTITLE13=Rock and Roll Records
TTITLE14=Let Me Do It To You
TTITLE15=Super Blue
TTITLE16=Cocain
TTITLE17=Ride Me High
EXTD=
EXTT0=
EXTT1=
EXTT2=
EXTT3=
EXTT4=
EXTT5=
EXTT6=
EXTT7=
EXTT8=
EXTT9=
EXTT10=
EXTT11=
EXTT12=
EXTT13=
EXTT14=
EXTT15=
EXTT16=
EXTT17=
PLAYORDER=
